<?xml version="1.0" encoding="UTF-8"?><svg id="Layer_1" xmlns="http://www.w3.org/2000/svg" viewBox="0 0 200 200"><defs><style>.cls-1{fill:#fdbe4f;}</style></defs><path class="cls-1" d="M61.24,49.59c5.16,0,5.97-5.49,20.64-8.71v14.68c0,6.59,5.34,11.94,11.94,11.94h13.6c6.59,0,11.94-5.35,11.94-11.94v-14c4.36,1.22,9.31,3.21,13.6,6.55,3.07,2.39,7.46,1.82,9.83-1.22,2.38-3.05,1.83-7.46-1.22-9.83-9.42-7.35-20.68-9.93-27.35-10.83-7.61,10.87-22.97,10.22-30.06.02-6.69.92-17.88,3.51-27.24,10.82-5.21,4.06-2.37,12.53,4.32,12.53"/><path class="cls-1" d="M99.25,31.52c9.71,0,17.37-8.78,15.46-18.84C113.42,5.81,107.24,0,99.25,0c-9.71,0-17.37,8.79-15.47,18.84,1.31,6.89,7.51,12.68,15.47,12.68"/><path class="cls-1" d="M137.26,148.91c-4.86,0-5.33,4.54-17.9,8.03v-14c0-6.6-5.35-11.95-11.94-11.95h-13.6c-6.6,0-11.95,5.35-11.95,11.95v14.68c-14.88-3.28-15.37-8.71-20.64-8.71-6.69,0-9.53,8.47-4.32,12.53,9.36,7.3,20.55,9.9,27.23,10.82,7.18-10.31,22.53-10.75,30.07.02,6.67-.9,17.94-3.48,27.35-10.83,5.24-4.08,2.33-12.53-4.32-12.53"/><path class="cls-1" d="M96.17,167.28c-6.17,1.17-11.21,6.21-12.38,12.38-1.91,10.06,5.76,18.84,15.46,18.84,7.94,0,14.16-5.77,15.46-12.68,2.11-11.15-7.5-20.65-18.55-18.55"/><path class="cls-1" d="M55.56,116.62c6.6,0,11.94-5.35,11.94-11.94v-13.6c0-6.6-5.34-11.95-11.94-11.95h-13.99c1.21-4.35,3.2-9.3,6.54-13.59,2.38-3.04,1.84-7.45-1.22-9.83-3.05-2.39-7.46-1.84-9.83,1.21-7.33,9.41-9.92,20.65-10.83,27.32,10.68,7.47,10.42,22.85.02,30.1.92,6.69,3.52,17.87,10.82,27.24,4.08,5.22,12.53,2.35,12.53-4.32,0-5.16-5.49-5.98-8.71-20.64h14.68Z"/><path class="cls-1" d="M12.67,83.79c-6.17,1.17-11.21,6.21-12.38,12.38-1.91,10.06,5.76,18.84,15.46,18.84,7.93,0,14.16-5.77,15.47-12.68,2.1-11.06-7.4-20.64-18.55-18.55"/><path class="cls-1" d="M172.27,84.24c-.91-6.67-3.5-17.91-10.83-27.31-4.08-5.24-12.53-2.35-12.53,4.32,0,4.86,4.54,5.33,8.03,17.9h-14c-6.6,0-11.94,5.34-11.94,11.94v13.6c0,6.6,5.34,11.95,11.94,11.95h14.69c-3.28,14.88-8.72,15.37-8.72,20.64,0,6.68,8.46,9.54,12.53,4.32,7.31-9.36,9.9-20.55,10.82-27.24-10.4-7.24-10.67-22.65.02-30.1"/><path class="cls-1" d="M198.21,96.17c-1.31-6.89-7.52-12.68-15.46-12.68-9.71,0-17.37,8.79-15.46,18.84,1.17,6.17,6.21,11.21,12.38,12.38,11.15,2.11,20.64-7.48,18.55-18.55"/><path class="cls-1" d="M99.25,87.81c-16.66-21.41-37.13,11.77,0,29.84,37.13-18.07,16.66-51.25,0-29.84"/></svg>